<svg xmlns="http://www.w3.org/2000/svg"  viewBox="0 0 100 100" width="100px" height="100px"><path d="M20.5,89C11.953,89,5,82.047,5,73.5v-43C5,21.953,11.953,15,20.5,15h63C92.047,15,99,21.953,99,30.5 v43C99,82.047,92.047,89,83.5,89H20.5z" opacity=".35"/><path fill="#f2f2f2" d="M18.5,87C9.953,87,3,80.047,3,71.5v-43C3,19.953,9.953,13,18.5,13h63C90.047,13,97,19.953,97,28.5 v43C97,80.047,90.047,87,81.5,87H18.5z"/><path fill="#2785bd" d="M81.5,80.5h-63c-4.971,0-9-4.029-9-9v-43c0-4.971,4.029-9,9-9h63c4.971,0,9,4.029,9,9v43 C90.5,76.471,86.471,80.5,81.5,80.5z"/><path fill="#fff" d="M46.51,43l-4.226,9.366L38.078,43h-5.39v13.452L26.682,43h-4.548L16,56.962h3.63l1.342-3.116h6.864 l1.364,3.116h6.93v-10.37l4.598,10.37h3.126l4.702-10.19v10.19H52V43H46.51z M22.27,50.83l2.052-4.88l2.132,4.88H22.27z M77.766,49.826L84,43.036h-4.434l-3.988,4.328L71.72,43H58v13.964h13.27l4.184-4.622L79.534,57h4.42L77.766,49.826z M69.456,54.032h-8.022V51.27h7.676v-2.646h-7.676v-2.616l8.468,0.024l3.386,3.794L69.456,54.032z"/><path fill="none" stroke="#40396e" stroke-miterlimit="10" stroke-width="3" d="M81.5,80.5h-63c-4.971,0-9-4.029-9-9v-43 c0-4.971,4.029-9,9-9h63c4.971,0,9,4.029,9,9v43C90.5,76.471,86.471,80.5,81.5,80.5z"/></svg>